<svg width="16" height="16" viewBox="0 0 16 16" fill="none" xmlns="http://www.w3.org/2000/svg">
<path opacity="0.7" d="M5.93579 4.49969C5.94424 2.97704 6.01149 2.15243 6.5473 1.61452C7.16005 0.99939 8.14621 0.99939 10.1185 0.99939H10.8158C12.7882 0.99939 13.7744 0.99939 14.3871 1.61452C14.9998 2.22965 14.9998 3.21968 14.9998 5.19974V10.8002C14.9998 12.7803 14.9998 13.7703 14.3871 14.3854C13.7744 15.0006 12.7882 15.0006 10.8158 15.0006H10.1185C8.14621 15.0006 7.16005 15.0006 6.5473 14.3854C6.01149 13.8475 5.94424 13.0229 5.93579 11.5003" stroke="#A194D2" stroke-linecap="round"/>
<path d="M10.1184 7.99959H1.05322M1.05322 7.99959L3.49386 5.89941M1.05322 7.99959L3.49386 10.0998" stroke="#A194D2" stroke-linecap="round" stroke-linejoin="round"/>
</svg>
