<svg width="20" height="20" viewBox="0 0 20 20" fill="none" xmlns="http://www.w3.org/2000/svg">
<g clip-path="url(#clip0_2007_189)">
<path d="M9.95153 19.3534C4.79325 19.3534 0.599487 15.1569 0.599487 10.0013C0.599487 4.8457 4.79592 0.646606 9.95153 0.646606C15.1072 0.646606 19.3036 4.84304 19.3036 9.99865C19.3036 15.1543 15.1072 19.3507 9.95153 19.3507V19.3534ZM9.95153 3.58544C6.41321 3.58544 3.53566 6.46299 3.53566 10.0013C3.53566 13.5396 6.41321 16.4172 9.95153 16.4172C13.4899 16.4172 16.3674 13.5396 16.3674 10.0013C16.3674 6.46299 13.4899 3.58544 9.95153 3.58544Z" fill="url(#paint0_linear_2007_189)"/>
<path d="M9.97287 14.1551C13.6237 14.1551 16.5832 12.2834 16.5832 9.97463C16.5832 7.66584 13.6237 5.79419 9.97287 5.79419C6.32206 5.79419 3.36249 7.66584 3.36249 9.97463C3.36249 12.2834 6.32206 14.1551 9.97287 14.1551Z" fill="#DADAD4"/>
<path d="M9.95153 13.1719C11.7041 13.1719 13.1248 11.7512 13.1248 9.99862C13.1248 8.24605 11.7041 6.82532 9.95153 6.82532C8.19896 6.82532 6.77823 8.24605 6.77823 9.99862C6.77823 11.7512 8.19896 13.1719 9.95153 13.1719Z" fill="#231F20"/>
<path d="M11.5582 9.09539C12.185 9.09539 12.6932 8.58721 12.6932 7.96035C12.6932 7.33349 12.185 6.82532 11.5582 6.82532C10.9313 6.82532 10.4231 7.33349 10.4231 7.96035C10.4231 8.58721 10.9313 9.09539 11.5582 9.09539Z" fill="#DADAD4"/>
<path d="M5.44337 3.7346C5.64853 3.37224 5.76576 2.95659 5.76576 2.51164C5.76576 2.01606 5.62722 1.56311 5.37676 1.17411L5.36877 1.16345C2.17948 2.82071 0 6.14055 0 9.98262V9.99861C0 11.3841 1.13237 12.5058 2.52319 12.4872C3.88203 12.4685 4.98243 11.3468 4.9771 9.98795C4.9771 9.86006 4.96644 9.73483 4.94779 9.61227C4.93714 9.54033 4.91848 9.47105 4.89451 9.40444C4.70267 8.72769 4.60142 8.01363 4.60142 7.27559C4.60142 6.002 4.90516 4.79769 5.44337 3.7346Z" fill="url(#paint1_linear_2007_189)"/>
<path d="M16.2262 5.49049C16.5886 5.69565 17.0042 5.81288 17.4492 5.81288C17.9448 5.81288 18.3977 5.67433 18.7867 5.42388L18.7974 5.41589C17.1401 2.2266 13.8203 0.0471191 9.97553 0.0471191H9.95954C8.57406 0.0471191 7.45234 1.17949 7.47099 2.57031C7.48964 3.96112 8.61136 5.02955 9.9702 5.02422C10.0981 5.02422 10.2233 5.01356 10.3459 4.99491C10.4178 4.98425 10.4871 4.9656 10.5537 4.94162C11.2305 4.74979 11.9445 4.64854 12.6826 4.64854C13.9561 4.64854 15.1605 4.95228 16.2236 5.49049" fill="url(#paint2_linear_2007_189)"/>
<path d="M14.4624 16.2654C14.2572 16.6277 14.14 17.0434 14.14 17.4883C14.14 17.9839 14.2785 18.4368 14.529 18.8259L14.537 18.8365C17.7263 17.1792 19.9057 13.8594 19.9057 10.0173V10.0014C19.9057 8.61586 18.7734 7.49415 17.3826 7.5128C16.0237 7.53145 14.9233 8.65317 14.9286 10.012C14.9286 10.1399 14.9393 10.2651 14.958 10.3877C14.9686 10.4596 14.9873 10.5289 15.0112 10.5955C15.2031 11.2723 15.3043 11.9863 15.3043 12.7244C15.3043 13.998 15.0006 15.2023 14.4624 16.2654Z" fill="url(#paint3_linear_2007_189)"/>
<path d="M3.67686 14.5095C3.3145 14.3044 2.89885 14.1871 2.4539 14.1871C1.95832 14.1871 1.50537 14.3257 1.11637 14.5761L1.10571 14.5841C2.76297 17.7734 6.08281 19.9529 9.92488 19.9529H9.94087C11.3264 19.9529 12.4481 18.8205 12.4294 17.4297C12.4108 16.0389 11.2891 14.9705 9.93021 14.9758C9.80232 14.9758 9.67709 14.9865 9.55453 15.0051C9.48259 15.0158 9.41332 15.0344 9.34671 15.0584C8.66995 15.2502 7.95589 15.3515 7.21785 15.3515C5.94427 15.3515 4.73996 15.0477 3.67686 14.5095Z" fill="url(#paint4_linear_2007_189)"/>
</g>
<defs>
<linearGradient id="paint0_linear_2007_189" x1="1.52137" y1="-0.163371" x2="27.406" y2="31.0394" gradientUnits="userSpaceOnUse">
<stop stop-color="#562368"/>
<stop offset="1" stop-color="#D4137D" stop-opacity="0"/>
</linearGradient>
<linearGradient id="paint1_linear_2007_189" x1="-0.178515" y1="3.15642" x2="17.3346" y2="21.0825" gradientUnits="userSpaceOnUse">
<stop stop-color="#AC3C96"/>
<stop offset="1" stop-color="#3D409A"/>
</linearGradient>
<linearGradient id="paint2_linear_2007_189" x1="6.12547" y1="-3.00362" x2="23.6386" y2="14.9225" gradientUnits="userSpaceOnUse">
<stop stop-color="#AC3C96"/>
<stop offset="1" stop-color="#3D409A"/>
</linearGradient>
<linearGradient id="paint3_linear_2007_189" x1="3.34649" y1="-0.288563" x2="20.8623" y2="17.6375" gradientUnits="userSpaceOnUse">
<stop stop-color="#AC3C96"/>
<stop offset="1" stop-color="#3D409A"/>
</linearGradient>
<linearGradient id="paint4_linear_2007_189" x1="-2.96016" y1="5.87154" x2="14.5556" y2="23.7976" gradientUnits="userSpaceOnUse">
<stop stop-color="#AC3C96"/>
<stop offset="1" stop-color="#3D409A"/>
</linearGradient>
<clipPath id="clip0_2007_189">
<rect width="19.9057" height="19.9057" fill="white" transform="translate(0 0.0471191)"/>
</clipPath>
</defs>
</svg>
