<svg width="13" height="13" viewBox="0 0 13 13" fill="none" xmlns="http://www.w3.org/2000/svg">
<path fill-rule="evenodd" clip-rule="evenodd" d="M2.46865 9.21633C1.76506 8.49788 1.28784 7.58875 1.0962 6.60159C0.902962 5.61167 1.00219 4.58693 1.38175 3.65248C1.75807 2.72328 2.40055 1.92599 3.2285 1.36072C4.90836 0.213419 7.11982 0.213419 8.79963 1.36072C9.62765 1.92599 10.2701 2.72328 10.6464 3.65248C11.026 4.58693 11.1252 5.61167 10.9319 6.60159C10.7403 7.58875 10.2631 8.49788 9.55948 9.21633C8.62773 10.1725 7.34924 10.7118 6.01405 10.7118C4.67894 10.7118 3.40044 10.1725 2.46865 9.21633Z" stroke="url(#paint0_linear_2014_269)" stroke-linecap="round" stroke-linejoin="round"/>
<path d="M6.01881 2.29243C5.68371 2.32793 5.44087 2.62837 5.47634 2.96348C5.51189 3.29859 5.81234 3.54146 6.14743 3.50595L6.01881 2.29243ZM7.52501 4.31751C7.6564 4.62786 8.01444 4.77291 8.32481 4.64152C8.63509 4.51015 8.78015 4.15209 8.64876 3.84178L7.52501 4.31751ZM10.0637 8.7064C9.82523 8.46836 9.43888 8.46869 9.20083 8.70722C8.96271 8.94567 8.96312 9.33202 9.20157 9.57007L10.0637 8.7064ZM11.9579 12.3215C12.1964 12.5596 12.5827 12.5593 12.8208 12.3207C13.0588 12.0822 13.0585 11.6959 12.82 11.4578L11.9579 12.3215ZM6.14743 3.50595C6.73522 3.44367 7.29462 3.77319 7.52501 4.31751L8.64876 3.84178C8.20888 2.80263 7.14102 2.17352 6.01881 2.29243L6.14743 3.50595ZM9.20157 9.57007L11.9579 12.3215L12.82 11.4578L10.0637 8.7064L9.20157 9.57007Z" fill="url(#paint1_linear_2014_269)"/>
<defs>
<linearGradient id="paint0_linear_2014_269" x1="11.1538" y1="5.78216" x2="1.27549" y2="5.78217" gradientUnits="userSpaceOnUse">
<stop stop-color="#BD7FB7"/>
<stop offset="1" stop-color="#BCB5C8"/>
</linearGradient>
<linearGradient id="paint1_linear_2014_269" x1="13.0934" y1="7.56529" x2="5.67966" y2="7.56529" gradientUnits="userSpaceOnUse">
<stop stop-color="#BD7FB7"/>
<stop offset="1" stop-color="#BCB5C8"/>
</linearGradient>
</defs>
</svg>
