<svg width="85" height="17" viewBox="0 0 85 17" fill="none" xmlns="http://www.w3.org/2000/svg">
<path d="M5.68631 16.0845C4.59636 16.0845 3.64088 15.8934 2.81988 15.5112C1.99888 15.129 1.35482 14.584 0.887694 13.8762C0.434728 13.1685 0.201167 12.3263 0.187012 11.3495H2.56508C2.57924 12.1422 2.85527 12.8146 3.39316 13.3667C3.93106 13.9187 4.68836 14.1947 5.66507 14.1947C6.52854 14.1947 7.20091 13.9895 7.68219 13.579C8.17762 13.1543 8.42534 12.6164 8.42534 11.9653C8.42534 11.4416 8.30502 11.0169 8.06438 10.6913C7.8379 10.3658 7.5194 10.0968 7.1089 9.88448C6.71256 9.67215 6.25251 9.48106 5.72877 9.3112C5.20503 9.14133 4.65298 8.95732 4.07261 8.75914C2.92604 8.37695 2.06258 7.88152 1.48221 7.27285C0.916004 6.66417 0.6329 5.86441 0.6329 4.87354C0.618745 4.03838 0.80984 3.30939 1.20619 2.68656C1.61669 2.06374 2.18289 1.58246 2.90481 1.24273C3.64088 0.888854 4.49727 0.711914 5.47398 0.711914C6.43653 0.711914 7.27876 0.888854 8.00068 1.24273C8.73675 1.59661 9.31004 2.09204 9.72054 2.72903C10.131 3.35186 10.3434 4.08085 10.3575 4.91601H7.97945C7.97945 4.53382 7.88036 4.17286 7.68219 3.83313C7.48402 3.47925 7.19383 3.18907 6.81164 2.96259C6.42945 2.73611 5.96233 2.62287 5.41028 2.62287C4.70252 2.60871 4.11508 2.78565 3.64796 3.15369C3.19499 3.52172 2.96851 4.03131 2.96851 4.68245C2.96851 5.26281 3.13837 5.7087 3.4781 6.02011C3.81782 6.33153 4.28494 6.5934 4.87946 6.80573C5.47398 7.0039 6.15343 7.23746 6.91781 7.50641C7.65388 7.74705 8.31209 8.03723 8.89246 8.37695C9.47282 8.71668 9.93287 9.16257 10.2726 9.71462C10.6265 10.2667 10.8034 10.9674 10.8034 11.8167C10.8034 12.5669 10.6123 13.2676 10.2301 13.9187C9.84793 14.5557 9.27465 15.0794 8.51027 15.4899C7.74589 15.8863 6.80457 16.0845 5.68631 16.0845Z" fill="url(#paint0_linear_2007_224)"/>
<path d="M17.0377 15.8297V10.3516L12.1117 0.966707H14.6596L18.1631 8.14339L21.6452 0.966707H24.1719L19.2884 10.3516V15.8297H17.0377Z" fill="url(#paint1_linear_2007_224)"/>
<path d="M26.6681 15.8297V0.966707H28.9188L36.3715 12.1564V0.966707H38.6222V15.8297H36.3715L28.9188 4.63998V15.8297H26.6681Z" fill="url(#paint2_linear_2007_224)"/>
<path d="M42.2759 15.8297V0.966707H51.7245V2.79273H44.5266V7.42148H51.0875V9.20503H44.5266V14.0036H51.7245V15.8297H42.2759Z" fill="url(#paint3_linear_2007_224)"/>
<path d="M54.2998 15.8297L58.8861 8.31325L54.2573 0.966707H56.8265L60.3299 6.5297L63.5997 0.966707H66.1264L61.5189 8.41942L66.1901 15.8297H63.621L60.0963 10.2242L56.8265 15.8297H54.2998Z" fill="url(#paint4_linear_2007_224)"/>
<path d="M69.0748 15.8297V0.966707H71.3255V15.8297H69.0748Z" fill="url(#paint5_linear_2007_224)"/>
<path d="M79.8833 16.0845C78.7934 16.0845 77.8379 15.8934 77.0169 15.5112C76.1959 15.129 75.5518 14.584 75.0847 13.8762C74.6317 13.1685 74.3982 12.3263 74.384 11.3495H76.7621C76.7762 12.1422 77.0523 12.8146 77.5902 13.3667C78.1281 13.9187 78.8854 14.1947 79.8621 14.1947C80.7255 14.1947 81.3979 13.9895 81.8792 13.579C82.3746 13.1543 82.6223 12.6164 82.6223 11.9653C82.6223 11.4416 82.502 11.0169 82.2614 10.6913C82.0349 10.3658 81.7164 10.0968 81.3059 9.88448C80.9096 9.67215 80.4495 9.48106 79.9258 9.3112C79.402 9.14133 78.85 8.95732 78.2696 8.75914C77.123 8.37695 76.2596 7.88152 75.6792 7.27285C75.113 6.66417 74.8299 5.86441 74.8299 4.87354C74.8157 4.03838 75.0068 3.30939 75.4032 2.68656C75.8137 2.06374 76.3799 1.58246 77.1018 1.24273C77.8379 0.888854 78.6943 0.711914 79.671 0.711914C80.6335 0.711914 81.4758 0.888854 82.1977 1.24273C82.9337 1.59661 83.507 2.09204 83.9175 2.72903C84.328 3.35186 84.5404 4.08085 84.5545 4.91601H82.1764C82.1764 4.53382 82.0774 4.17286 81.8792 3.83313C81.681 3.47925 81.3908 3.18907 81.0086 2.96259C80.6264 2.73611 80.1593 2.62287 79.6073 2.62287C78.8995 2.60871 78.3121 2.78565 77.845 3.15369C77.392 3.52172 77.1655 4.03131 77.1655 4.68245C77.1655 5.26281 77.3354 5.7087 77.6751 6.02011C78.0148 6.33153 78.4819 6.5934 79.0765 6.80573C79.671 7.0039 80.3504 7.23746 81.1148 7.50641C81.8509 7.74705 82.5091 8.03723 83.0895 8.37695C83.6698 8.71668 84.1299 9.16257 84.4696 9.71462C84.8235 10.2667 85.0004 10.9674 85.0004 11.8167C85.0004 12.5669 84.8093 13.2676 84.4271 13.9187C84.0449 14.5557 83.4716 15.0794 82.7073 15.4899C81.9429 15.8863 81.0016 16.0845 79.8833 16.0845Z" fill="url(#paint6_linear_2007_224)"/>
<defs>
<linearGradient id="paint0_linear_2007_224" x1="86.0631" y1="8.66336" x2="2.51701" y2="8.6634" gradientUnits="userSpaceOnUse">
<stop stop-color="#BD7FB7"/>
<stop offset="1" stop-color="#BCB5C8"/>
</linearGradient>
<linearGradient id="paint1_linear_2007_224" x1="86.0631" y1="8.66336" x2="2.51701" y2="8.6634" gradientUnits="userSpaceOnUse">
<stop stop-color="#BD7FB7"/>
<stop offset="1" stop-color="#BCB5C8"/>
</linearGradient>
<linearGradient id="paint2_linear_2007_224" x1="86.0631" y1="8.66336" x2="2.51701" y2="8.6634" gradientUnits="userSpaceOnUse">
<stop stop-color="#BD7FB7"/>
<stop offset="1" stop-color="#BCB5C8"/>
</linearGradient>
<linearGradient id="paint3_linear_2007_224" x1="86.0631" y1="8.66336" x2="2.51701" y2="8.6634" gradientUnits="userSpaceOnUse">
<stop stop-color="#BD7FB7"/>
<stop offset="1" stop-color="#BCB5C8"/>
</linearGradient>
<linearGradient id="paint4_linear_2007_224" x1="86.0631" y1="8.66336" x2="2.51701" y2="8.6634" gradientUnits="userSpaceOnUse">
<stop stop-color="#BD7FB7"/>
<stop offset="1" stop-color="#BCB5C8"/>
</linearGradient>
<linearGradient id="paint5_linear_2007_224" x1="86.0631" y1="8.66336" x2="2.51701" y2="8.6634" gradientUnits="userSpaceOnUse">
<stop stop-color="#BD7FB7"/>
<stop offset="1" stop-color="#BCB5C8"/>
</linearGradient>
<linearGradient id="paint6_linear_2007_224" x1="86.0631" y1="8.66336" x2="2.51701" y2="8.6634" gradientUnits="userSpaceOnUse">
<stop stop-color="#BD7FB7"/>
<stop offset="1" stop-color="#BCB5C8"/>
</linearGradient>
</defs>
</svg>
